<?xml version="1.0" encoding="UTF-8" standalone="no"?>
<!-- Created with Inkscape (http://www.inkscape.org/) -->

<svg
   version="1.1"
   id="svg1"
   width="87.277344"
   height="86.089844"
   viewBox="0 0 87.277344 86.089844"
   sodipodi:docname="clock.svg"
   inkscape:version="1.3.2 (091e20ef0f, 2023-11-25, custom)"
   xmlns:inkscape="http://www.inkscape.org/namespaces/inkscape"
   xmlns:sodipodi="http://sodipodi.sourceforge.net/DTD/sodipodi-0.dtd"
   xmlns="http://www.w3.org/2000/svg"
   xmlns:svg="http://www.w3.org/2000/svg">
  <defs
     id="defs1" />
  <sodipodi:namedview
     id="namedview1"
     pagecolor="#ffffff"
     bordercolor="#000000"
     borderopacity="0.25"
     inkscape:showpageshadow="2"
     inkscape:pageopacity="0.0"
     inkscape:pagecheckerboard="0"
     inkscape:deskcolor="#d1d1d1"
     inkscape:zoom="2.5462963"
     inkscape:cx="35.345455"
     inkscape:cy="55.374545"
     inkscape:window-width="1366"
     inkscape:window-height="724"
     inkscape:window-x="0"
     inkscape:window-y="332"
     inkscape:window-maximized="1"
     inkscape:current-layer="g1" />
  <g
     inkscape:groupmode="layer"
     inkscape:label="Image"
     id="g1"
     transform="translate(90.448283,-9.734375)">
    <path
       id="path2"
       style="fill:#6237ac;fill-opacity:1;stroke-width:102.411"
       d="M -46.809611,9.734375 A 43.639141,43.044838 0 0 0 -90.448283,52.779297 43.639141,43.044838 0 0 0 -46.809611,95.824219 43.639141,43.044838 0 0 0 -3.1709385,52.779297 43.639141,43.044838 0 0 0 -46.809611,9.734375 Z M -47.06547,20.867188 A 32.35532,31.914686 0 0 1 -14.710002,52.78125 32.35532,31.914686 0 0 1 -47.06547,84.695312 32.35532,31.914686 0 0 1 -79.420939,52.78125 32.35532,31.914686 0 0 1 -47.06547,20.867188 Z" />
    <path
       style="fill:#6237ac;fill-opacity:1;stroke-width:98.6003"
       d="m -53.781706,32.879188 c 0,0 1.531907,-5.306349 7.245685,-5.306349 3.634081,0 6.902808,3.523703 6.902808,5.255885 0,5.494203 -0.417564,17.013015 -0.417564,17.013015 l 10.871437,11.379694 c 0,0 0.821447,4.809793 -2.207905,7.839145 -2.212844,2.212844 -7.664294,0.877272 -7.664294,0.877272 l -14.55123,-13.937132 z"
       id="path3"
       sodipodi:nodetypes="cssccsccc" />
  </g>
</svg>
