<?xml version="1.0" encoding="UTF-8" standalone="no"?>
<!-- Created with Inkscape (http://www.inkscape.org/) -->

<svg
   version="1.1"
   id="svg1"
   width="73.351562"
   height="52.574615"
   viewBox="0 0 73.351562 52.574615"
   sodipodi:docname="eye.svg"
   inkscape:version="1.3.2 (091e20ef0f, 2023-11-25, custom)"
   xmlns:inkscape="http://www.inkscape.org/namespaces/inkscape"
   xmlns:sodipodi="http://sodipodi.sourceforge.net/DTD/sodipodi-0.dtd"
   xmlns="http://www.w3.org/2000/svg"
   xmlns:svg="http://www.w3.org/2000/svg">
  <defs
     id="defs1" />
  <sodipodi:namedview
     id="namedview1"
     pagecolor="#ffffff"
     bordercolor="#000000"
     borderopacity="0.25"
     inkscape:showpageshadow="2"
     inkscape:pageopacity="0.0"
     inkscape:pagecheckerboard="0"
     inkscape:deskcolor="#d1d1d1"
     inkscape:zoom="2.9263158"
     inkscape:cx="69.370504"
     inkscape:cy="77.571942"
     inkscape:window-width="1366"
     inkscape:window-height="724"
     inkscape:window-x="0"
     inkscape:window-y="332"
     inkscape:window-maximized="1"
     inkscape:current-layer="g1" />
  <g
     inkscape:groupmode="layer"
     inkscape:label="Image"
     id="g1"
     transform="translate(81.945962,-19.076371)">
    <path
       id="path1"
       style="fill:#6237ac;fill-opacity:1;stroke-width:98.6003"
       d="m -44.656899,19.077675 c -1.835818,0.01539 -3.674253,0.166127 -5.484375,0.404297 -3.77187,0.49629 -7.582395,1.330621 -11.023438,2.953125 -4.826835,2.275928 -9.441903,5.349455 -13.035156,9.294922 -3.46152,3.80082 -7.746094,13.335938 -7.746094,13.335938 0,0 3.869753,9.09401 6.941406,12.882812 2.87897,3.551134 6.49762,6.593146 10.466797,8.861328 3.701035,2.114953 7.869376,3.512909 12.074219,4.212891 4.961134,0.825883 10.152085,0.877901 15.087891,-0.08789 4.444204,-0.8696 8.755493,-2.675244 12.613281,-5.046875 4.077063,-2.506432 7.945667,-5.628057 10.777344,-9.486328 2.623522,-3.574653 5.3906246,-12.160156 5.3906246,-12.160156 0,0 -4.6401266,-9.018688 -7.9609376,-12.783203 -2.556814,-2.898439 -5.619243,-5.437386 -9,-7.310547 -4.200754,-2.327494 -8.893566,-3.877591 -13.630859,-4.666016 -1.800952,-0.299731 -3.634886,-0.419687 -5.470703,-0.404298 z m -0.125,10.203125 A 16.003021,16.003021 0 0 1 -28.777993,45.282754 16.003021,16.003021 0 0 1 -44.781899,61.28666 16.003021,16.003021 0 0 1 -60.785806,45.282754 16.003021,16.003021 0 0 1 -44.781899,29.2808 Z" />
    <circle
       style="fill:#6237ac;fill-opacity:1;stroke-width:104.848"
       id="path2"
       cx="-45.038395"
       cy="45.481987"
       r="8.1521091" />
  </g>
</svg>
