<svg width="24" height="20" viewBox="0 0 24 20" fill="none" xmlns="http://www.w3.org/2000/svg">
<path d="M12.0001 19.54C11.7034 19.5407 11.4096 19.4828 11.1354 19.3695C10.8613 19.2562 10.6122 19.0899 10.4026 18.88L2.67758 11.155C2.06733 10.5381 1.58595 9.80594 1.26147 9.00117C0.936984 8.19641 0.775894 7.33511 0.787581 6.46747C0.79346 5.67235 0.95615 4.8862 1.26633 4.15405C1.57651 3.42191 2.02809 2.75815 2.59519 2.2008C3.1623 1.64344 3.83379 1.20345 4.57121 0.906016C5.30863 0.608583 6.09748 0.459556 6.89258 0.46747C7.70192 0.459317 8.50465 0.613777 9.25317 0.921687C10.0017 1.2296 10.6807 1.68469 11.2501 2.25997L12.0001 3.00997L12.6151 2.39497C13.677 1.3049 15.098 0.636604 16.6149 0.513876C18.1318 0.391147 19.6417 0.822297 20.8651 1.72747C21.5615 2.26376 22.1356 2.94226 22.5493 3.71779C22.9629 4.49332 23.2066 5.34808 23.2641 6.22516C23.3216 7.10223 23.1915 7.98149 22.8826 8.80437C22.5737 9.62726 22.093 10.3749 21.4726 10.9975L13.5976 18.88C13.388 19.0899 13.1389 19.2562 12.8647 19.3695C12.5906 19.4828 12.2967 19.5407 12.0001 19.54ZM6.86258 1.95997C5.67047 1.95875 4.52465 2.42138 3.66758 3.24997C3.23063 3.67038 2.88315 4.17476 2.646 4.73282C2.40886 5.29088 2.28694 5.89111 2.28758 6.49747C2.28101 7.16445 2.40689 7.82611 2.65794 8.44408C2.90899 9.06205 3.28021 9.62404 3.75008 10.0975L11.4751 17.8225C11.5448 17.8928 11.6278 17.9486 11.7191 17.9866C11.8105 18.0247 11.9086 18.0443 12.0076 18.0443C12.1066 18.0443 12.2046 18.0247 12.296 17.9866C12.3874 17.9486 12.4704 17.8928 12.5401 17.8225L20.4226 9.93247C20.8853 9.46 21.2428 8.89497 21.4715 8.27452C21.7003 7.65406 21.7953 6.99222 21.7501 6.33247C21.71 5.66596 21.5264 5.01596 21.2119 4.42698C20.8973 3.838 20.4592 3.32393 19.9276 2.91997C18.9947 2.23214 17.8435 1.90691 16.6886 2.00488C15.5337 2.10285 14.4538 2.61733 13.6501 3.45247L12.5326 4.59997C12.4629 4.67027 12.3799 4.72606 12.2885 4.76414C12.1971 4.80222 12.0991 4.82182 12.0001 4.82182C11.9011 4.82182 11.803 4.80222 11.7116 4.76414C11.6203 4.72606 11.5373 4.67027 11.4676 4.59997L10.1926 3.32497C9.31441 2.45443 8.12911 1.96415 6.89258 1.95997H6.86258Z" fill="#6237AC"/>
</svg>
