<svg width="15" height="15" viewBox="0 0 15 15" fill="none" xmlns="http://www.w3.org/2000/svg">
<path d="M7.5 8.75C9.22589 8.75 10.625 7.07107 10.625 5C10.625 2.92893 9.22589 1.25 7.5 1.25C5.77411 1.25 4.375 2.92893 4.375 5C4.375 7.07107 5.77411 8.75 7.5 8.75Z" fill="#6237AC"/>
<path d="M13.6251 11.9375C13.0626 10.8125 12.0001 9.875 10.6251 9.3125C10.2501 9.1875 9.81264 9.18751 9.50014 9.37501C8.87514 9.75001 8.25014 9.9375 7.50014 9.9375C6.75014 9.9375 6.12514 9.75001 5.50014 9.37501C5.18764 9.25001 4.75014 9.18751 4.37514 9.37501C3.00014 9.9375 1.93764 10.875 1.37514 12C0.937636 12.8125 1.62514 13.75 2.56264 13.75H12.4376C13.3751 13.75 14.0626 12.8125 13.6251 11.9375Z" fill="#6237AC"/>
</svg>
