<svg width="229" height="205" viewBox="0 0 229 205" fill="none" xmlns="http://www.w3.org/2000/svg">
<path fill-rule="evenodd" clip-rule="evenodd" d="M3.02682 1.03633C-1.08638 3.79389 -0.993675 9.2034 3.22075 12.3627C4.39998 13.2467 5.12239 13.2957 18.9315 13.4247C31.8815 13.5456 33.4782 13.6404 34.0868 14.3235C34.5746 14.8713 62.2702 116.59 65.0994 128.225C65.377 129.367 65.2969 129.461 64.0478 129.461C61.958 129.461 57.478 131.012 55.0465 132.578C41.1734 141.511 42.3325 161.756 57.139 169.122L60.9758 171.031L68.3343 171.183C76.7112 171.356 75.9391 170.786 74.526 175.75C73.1126 180.717 73.8157 186.959 76.391 192.3C78.023 195.686 83.1215 200.846 86.4111 202.443C94.0136 206.132 102.378 205.818 109.418 201.578C114.292 198.643 117.682 194.404 119.557 188.902C121.252 183.93 120.928 177.015 118.759 171.818C118.573 171.373 122.926 171.256 139.663 171.256H160.803L160.486 172.267C159.204 176.354 158.878 178.242 158.879 181.592C158.88 188.125 161.113 193.55 165.696 198.148C170.238 202.705 175.701 204.961 182.196 204.961C192.826 204.961 201.831 198.111 204.809 187.76C206.069 183.378 205.706 176.72 203.982 172.606C203.346 171.089 203.359 171.042 204.637 170.262C208.946 167.633 208.665 161.2 204.136 158.796L202.209 157.774H133.29C65.618 157.774 64.3402 157.758 62.6428 156.889C57.5747 154.294 57.6442 146.122 62.7552 143.688C64.1884 143.005 69.8302 142.943 130.586 142.943C173.537 142.943 197.702 142.783 199.266 142.487C204.431 141.511 209.079 137.938 211.27 133.261C211.803 132.123 216.082 114.472 220.78 94.037C230.183 53.1302 229.982 54.4259 227.663 49.6698C226.39 47.0569 224.406 45.0818 221.484 43.5147C219.607 42.5085 219.406 42.4986 194.96 42.2191C181.412 42.064 147.453 41.887 119.495 41.8254C91.5365 41.7643 65.7411 41.5877 62.1716 41.4331L55.6816 41.1526L51.6195 26.022C49.3851 17.6999 47.1708 10.0321 46.6992 8.98185C45.4792 6.26743 42.0176 2.89103 38.9995 1.47181L36.4153 0.256611L20.4936 0.12853L4.57241 0L3.02682 1.03633ZM79.3867 55.309H89.749L91.6453 69.8023C92.6884 77.7739 93.5366 84.6494 93.5299 85.0822C93.5192 85.8129 92.6006 85.8686 80.6103 85.8686H67.7028L63.7947 71.3451C61.6459 63.3569 59.7635 56.3471 59.6125 55.7678L59.338 54.7144L64.1817 55.0114C66.8456 55.175 73.6876 55.309 79.3867 55.309ZM132.931 70.5888V85.8686H120.187H107.443L107.189 84.4081C106.935 82.9403 103.371 56.01 103.371 55.553C103.371 55.4186 110.022 55.309 118.151 55.309H132.931V70.5888ZM175.908 56.0954C175.898 56.5282 175.034 63.3533 173.988 71.2629L172.086 85.6439L159.226 85.763L146.367 85.8826V70.5955V55.309H161.146C174.93 55.309 175.924 55.362 175.908 56.0954ZM215.563 56.7695C215.432 57.3259 213.913 63.9227 212.188 71.4301C210.464 78.9374 208.944 85.257 208.81 85.474C208.676 85.6911 203.44 85.8686 197.173 85.8686C188.36 85.8686 185.777 85.7414 185.772 85.3069C185.768 84.9981 186.615 78.2233 187.654 70.2517L189.543 55.7584H202.673H215.803L215.563 56.7695ZM97.4703 113.619C98.508 121.467 99.3531 128.242 99.3486 128.675C99.341 129.396 98.6244 129.461 90.6363 129.461C85.849 129.461 81.4138 129.263 80.781 129.022C80.1477 128.78 79.3321 127.921 78.9684 127.112C78.3172 125.664 71.5728 100.793 71.5728 99.8402C71.5728 99.4996 75.2225 99.3508 83.5783 99.3508H95.5843L97.4703 113.619ZM132.931 114.406V129.461H123.086H113.241L113.025 128.45C112.82 127.488 109.194 100.215 109.194 99.6304C109.194 99.4767 114.534 99.3508 121.062 99.3508H132.931V114.406ZM170.103 100.039C170.103 101.07 166.515 128.249 166.293 128.899C166.147 129.326 163.726 129.461 156.234 129.461H146.367V114.406V99.3508H158.235C168.596 99.3508 170.103 99.4385 170.103 100.039ZM205.485 99.9382C205.485 100.858 199.686 125.95 199.169 127.268C198.914 127.916 198.207 128.674 197.596 128.953C196.36 129.519 179.957 129.685 179.957 129.132C179.957 128.412 183.621 100.437 183.784 99.9126C184.046 99.074 205.485 99.0992 205.485 99.9382ZM102.028 172.747C107.962 175.745 109.054 184.1 104.11 188.673C101.701 190.901 99.5519 191.635 96.1558 191.388C92.6252 191.132 90.1588 189.438 88.4798 186.115C83.9348 177.122 92.9943 168.182 102.028 172.747ZM184.659 171.752C188.801 172.799 192.113 177.063 192.113 181.35C192.113 187.193 187.986 191.446 182.294 191.469C176.439 191.494 172.375 187.404 172.353 181.462C172.341 178.26 173.404 175.998 175.95 173.811C178.622 171.516 181.258 170.893 184.659 171.752Z" fill="#6237AC"/>
</svg>
